<mxfile host="app.diagrams.net" agent="Mozilla/5.0 (Macintosh; Intel Mac OS X 10_15_7) AppleWebKit/537.36 (KHTML, like Gecko) Chrome/141.0.0.0 Safari/537.36" version="28.2.7">
  <diagram name="Page-1" id="MShjVqua6dN76zL4H0p4">
    <mxGraphModel dx="2476" dy="1120" grid="1" gridSize="10" guides="1" tooltips="1" connect="1" arrows="1" fold="1" page="1" pageScale="1" pageWidth="850" pageHeight="1100" math="0" shadow="0">
      <root>
        <mxCell id="0" />
        <mxCell id="1" parent="0" />
        <mxCell id="Yt73LQbdyz496-idZjtG-1" value="Sistemas Externos" style="whiteSpace=wrap;strokeWidth=2;" vertex="1" parent="1">
          <mxGeometry x="20" y="1963" width="251" height="352" as="geometry" />
        </mxCell>
        <mxCell id="Yt73LQbdyz496-idZjtG-2" value="Event Publisher" style="whiteSpace=wrap;strokeWidth=2;" vertex="1" parent="1">
          <mxGeometry x="291" y="1664" width="304" height="450" as="geometry" />
        </mxCell>
        <mxCell id="Yt73LQbdyz496-idZjtG-3" value="Dominios de Negocio (13 Dominios)" style="whiteSpace=wrap;strokeWidth=2;" vertex="1" parent="1">
          <mxGeometry x="683" y="1510" width="3201" height="403" as="geometry" />
        </mxCell>
        <mxCell id="Yt73LQbdyz496-idZjtG-4" value="Codeshare Domain" style="whiteSpace=wrap;strokeWidth=2;" vertex="1" parent="1">
          <mxGeometry x="703" y="1535" width="261" height="353" as="geometry" />
        </mxCell>
        <mxCell id="Yt73LQbdyz496-idZjtG-5" value="Turnaround Domain" style="whiteSpace=wrap;strokeWidth=2;" vertex="1" parent="1">
          <mxGeometry x="984" y="1535" width="267" height="353" as="geometry" />
        </mxCell>
        <mxCell id="Yt73LQbdyz496-idZjtG-6" value="Schedules Domain" style="whiteSpace=wrap;strokeWidth=2;" vertex="1" parent="1">
          <mxGeometry x="1271" y="1535" width="257" height="353" as="geometry" />
        </mxCell>
        <mxCell id="Yt73LQbdyz496-idZjtG-7" value="Aircraft Domain" style="whiteSpace=wrap;strokeWidth=2;" vertex="1" parent="1">
          <mxGeometry x="1549" y="1535" width="242" height="353" as="geometry" />
        </mxCell>
        <mxCell id="Yt73LQbdyz496-idZjtG-8" value="Fuel Domain" style="whiteSpace=wrap;strokeWidth=2;" vertex="1" parent="1">
          <mxGeometry x="1810" y="1535" width="217" height="353" as="geometry" />
        </mxCell>
        <mxCell id="Yt73LQbdyz496-idZjtG-9" value="Baggage Domain" style="whiteSpace=wrap;strokeWidth=2;" vertex="1" parent="1">
          <mxGeometry x="2047" y="1535" width="245" height="353" as="geometry" />
        </mxCell>
        <mxCell id="Yt73LQbdyz496-idZjtG-10" value="Passengers Domain" style="whiteSpace=wrap;strokeWidth=2;" vertex="1" parent="1">
          <mxGeometry x="2312" y="1535" width="263" height="353" as="geometry" />
        </mxCell>
        <mxCell id="Yt73LQbdyz496-idZjtG-11" value="Alerts Domain" style="whiteSpace=wrap;strokeWidth=2;" vertex="1" parent="1">
          <mxGeometry x="2595" y="1535" width="228" height="353" as="geometry" />
        </mxCell>
        <mxCell id="Yt73LQbdyz496-idZjtG-12" value="Crew Domain" style="whiteSpace=wrap;strokeWidth=2;" vertex="1" parent="1">
          <mxGeometry x="2844" y="1535" width="223" height="353" as="geometry" />
        </mxCell>
        <mxCell id="Yt73LQbdyz496-idZjtG-13" value="Delays Domain" style="whiteSpace=wrap;strokeWidth=2;" vertex="1" parent="1">
          <mxGeometry x="3087" y="1535" width="233" height="353" as="geometry" />
        </mxCell>
        <mxCell id="Yt73LQbdyz496-idZjtG-14" value="Timeline Domain" style="whiteSpace=wrap;strokeWidth=2;" vertex="1" parent="1">
          <mxGeometry x="3339" y="1535" width="248" height="353" as="geometry" />
        </mxCell>
        <mxCell id="Yt73LQbdyz496-idZjtG-15" value="Resources Domain" style="whiteSpace=wrap;strokeWidth=2;" vertex="1" parent="1">
          <mxGeometry x="3608" y="1535" width="257" height="353" as="geometry" />
        </mxCell>
        <mxCell id="Yt73LQbdyz496-idZjtG-16" value="Domain Event Queues (FIFO) - 13 Dominios" style="whiteSpace=wrap;strokeWidth=2;" vertex="1" parent="1">
          <mxGeometry x="689" y="1258" width="3189" height="203" as="geometry" />
        </mxCell>
        <mxCell id="Yt73LQbdyz496-idZjtG-17" value="Flight Orchestrator" style="whiteSpace=wrap;strokeWidth=2;" vertex="1" parent="1">
          <mxGeometry x="247" y="937" width="422" height="524" as="geometry" />
        </mxCell>
        <mxCell id="Yt73LQbdyz496-idZjtG-18" value="Orchestrator Queue" style="whiteSpace=wrap;strokeWidth=2;" vertex="1" parent="1">
          <mxGeometry x="339" y="710" width="330" height="177" as="geometry" />
        </mxCell>
        <mxCell id="Yt73LQbdyz496-idZjtG-19" value="Parsers (con BD propia)" style="whiteSpace=wrap;strokeWidth=2;" vertex="1" parent="1">
          <mxGeometry x="1625" y="376" width="1610" height="511" as="geometry" />
        </mxCell>
        <mxCell id="Yt73LQbdyz496-idZjtG-20" value="SSIM Parser" style="whiteSpace=wrap;strokeWidth=2;" vertex="1" parent="1">
          <mxGeometry x="1645" y="401" width="287" height="461" as="geometry" />
        </mxCell>
        <mxCell id="Yt73LQbdyz496-idZjtG-21" value="CKI Parser" style="whiteSpace=wrap;strokeWidth=2;" vertex="1" parent="1">
          <mxGeometry x="1952" y="401" width="275" height="461" as="geometry" />
        </mxCell>
        <mxCell id="Yt73LQbdyz496-idZjtG-22" value="AENA Parser" style="whiteSpace=wrap;strokeWidth=2;" vertex="1" parent="1">
          <mxGeometry x="2247" y="401" width="291" height="461" as="geometry" />
        </mxCell>
        <mxCell id="Yt73LQbdyz496-idZjtG-23" value="Nimbus Parser" style="whiteSpace=wrap;strokeWidth=2;" vertex="1" parent="1">
          <mxGeometry x="2558" y="401" width="312" height="461" as="geometry" />
        </mxCell>
        <mxCell id="Yt73LQbdyz496-idZjtG-24" value="Telex Parser" style="whiteSpace=wrap;strokeWidth=2;" vertex="1" parent="1">
          <mxGeometry x="2890" y="401" width="325" height="461" as="geometry" />
        </mxCell>
        <mxCell id="Yt73LQbdyz496-idZjtG-25" value="Servicios IN" style="whiteSpace=wrap;strokeWidth=2;" vertex="1" parent="1">
          <mxGeometry x="1678" y="198" width="1475" height="128" as="geometry" />
        </mxCell>
        <mxCell id="Yt73LQbdyz496-idZjtG-26" value="Fuentes Externas" style="whiteSpace=wrap;strokeWidth=2;" vertex="1" parent="1">
          <mxGeometry x="1732" y="20" width="1431" height="128" as="geometry" />
        </mxCell>
        <mxCell id="Yt73LQbdyz496-idZjtG-27" value="Red SITA&#xa;Telex Messages" style="whiteSpace=wrap;strokeWidth=2;" vertex="1" parent="1">
          <mxGeometry x="2961" y="45" width="167" height="78" as="geometry" />
        </mxCell>
        <mxCell id="Yt73LQbdyz496-idZjtG-28" value="AENA CDM" style="whiteSpace=wrap;strokeWidth=2;" vertex="1" parent="1">
          <mxGeometry x="2319" y="57" width="132" height="54" as="geometry" />
        </mxCell>
        <mxCell id="Yt73LQbdyz496-idZjtG-29" value="SFTP" style="whiteSpace=wrap;strokeWidth=2;" vertex="1" parent="1">
          <mxGeometry x="1767" y="57" width="94" height="54" as="geometry" />
        </mxCell>
        <mxCell id="Yt73LQbdyz496-idZjtG-30" value="Check-in" style="whiteSpace=wrap;strokeWidth=2;" vertex="1" parent="1">
          <mxGeometry x="2022" y="57" width="122" height="54" as="geometry" />
        </mxCell>
        <mxCell id="Yt73LQbdyz496-idZjtG-31" value="Nimbus" style="whiteSpace=wrap;strokeWidth=2;" vertex="1" parent="1">
          <mxGeometry x="2648" y="57" width="112" height="54" as="geometry" />
        </mxCell>
        <mxCell id="Yt73LQbdyz496-idZjtG-32" value="telex-in&#xa;Recibe SITA" style="whiteSpace=wrap;strokeWidth=2;" vertex="1" parent="1">
          <mxGeometry x="2974" y="223" width="142" height="78" as="geometry" />
        </mxCell>
        <mxCell id="Yt73LQbdyz496-idZjtG-33" value="nimbus-in&#xa;Recibe Nimbus" style="whiteSpace=wrap;strokeWidth=2;" vertex="1" parent="1">
          <mxGeometry x="2622" y="223" width="165" height="78" as="geometry" />
        </mxCell>
        <mxCell id="Yt73LQbdyz496-idZjtG-34" value="aena-in&#xa;Recibe CDM" style="whiteSpace=wrap;strokeWidth=2;" vertex="1" parent="1">
          <mxGeometry x="2314" y="223" width="143" height="78" as="geometry" />
        </mxCell>
        <mxCell id="Yt73LQbdyz496-idZjtG-35" value="cki-in&#xa;Recibe GAUD" style="whiteSpace=wrap;strokeWidth=2;" vertex="1" parent="1">
          <mxGeometry x="2006" y="223" width="153" height="78" as="geometry" />
        </mxCell>
        <mxCell id="Yt73LQbdyz496-idZjtG-36" value="ssim-in&#xa;Recibe SSIM" style="whiteSpace=wrap;strokeWidth=2;" vertex="1" parent="1">
          <mxGeometry x="1743" y="223" width="144" height="78" as="geometry" />
        </mxCell>
        <mxCell id="Yt73LQbdyz496-idZjtG-37" value="telex-parser&#xa;21 tipos de mensajes" style="whiteSpace=wrap;strokeWidth=2;" vertex="1" parent="1">
          <mxGeometry x="2929" y="582" width="210" height="78" as="geometry" />
        </mxCell>
        <mxCell id="Yt73LQbdyz496-idZjtG-38" value="fh_telex_messages&#xa;raw messages" style="shape=cylinder3;boundedLbl=1;backgroundOutline=1;size=10;strokeWidth=2;whiteSpace=wrap;" vertex="1" parent="1">
          <mxGeometry x="3015" y="427" width="150" height="104" as="geometry" />
        </mxCell>
        <mxCell id="Yt73LQbdyz496-idZjtG-39" value="fh_telex&#xa;parsed data" style="shape=cylinder3;boundedLbl=1;backgroundOutline=1;size=10;strokeWidth=2;whiteSpace=wrap;" vertex="1" parent="1">
          <mxGeometry x="2985" y="737" width="100" height="96" as="geometry" />
        </mxCell>
        <mxCell id="Yt73LQbdyz496-idZjtG-40" value="nimbus-parser&#xa;Fuel data" style="whiteSpace=wrap;strokeWidth=2;" vertex="1" parent="1">
          <mxGeometry x="2598" y="582" width="162" height="78" as="geometry" />
        </mxCell>
        <mxCell id="Yt73LQbdyz496-idZjtG-41" value="fh_nimbus_messages&#xa;raw messages" style="shape=cylinder3;boundedLbl=1;backgroundOutline=1;size=10;strokeWidth=2;whiteSpace=wrap;" vertex="1" parent="1">
          <mxGeometry x="2671" y="426" width="164" height="106" as="geometry" />
        </mxCell>
        <mxCell id="Yt73LQbdyz496-idZjtG-42" value="fh_nimbus&#xa;parsed data" style="shape=cylinder3;boundedLbl=1;backgroundOutline=1;size=10;strokeWidth=2;whiteSpace=wrap;" vertex="1" parent="1">
          <mxGeometry x="2629" y="737" width="100" height="96" as="geometry" />
        </mxCell>
        <mxCell id="Yt73LQbdyz496-idZjtG-43" value="aena-parser&#xa;CDM" style="whiteSpace=wrap;strokeWidth=2;" vertex="1" parent="1">
          <mxGeometry x="2287" y="582" width="145" height="78" as="geometry" />
        </mxCell>
        <mxCell id="Yt73LQbdyz496-idZjtG-44" value="fh_aena_messages&#xa;raw messages" style="shape=cylinder3;boundedLbl=1;backgroundOutline=1;size=10;strokeWidth=2;whiteSpace=wrap;" vertex="1" parent="1">
          <mxGeometry x="2356" y="427" width="147" height="104" as="geometry" />
        </mxCell>
        <mxCell id="Yt73LQbdyz496-idZjtG-45" value="fh_aena&#xa;parsed data" style="shape=cylinder3;boundedLbl=1;backgroundOutline=1;size=10;strokeWidth=2;whiteSpace=wrap;" vertex="1" parent="1">
          <mxGeometry x="2310" y="737" width="100" height="96" as="geometry" />
        </mxCell>
        <mxCell id="Yt73LQbdyz496-idZjtG-46" value="cki-parser&#xa;GAUD" style="whiteSpace=wrap;strokeWidth=2;" vertex="1" parent="1">
          <mxGeometry x="1993" y="582" width="131" height="78" as="geometry" />
        </mxCell>
        <mxCell id="Yt73LQbdyz496-idZjtG-47" value="fh_cki_messages&#xa;raw messages" style="shape=cylinder3;boundedLbl=1;backgroundOutline=1;size=10;strokeWidth=2;whiteSpace=wrap;" vertex="1" parent="1">
          <mxGeometry x="2057" y="428" width="134" height="102" as="geometry" />
        </mxCell>
        <mxCell id="Yt73LQbdyz496-idZjtG-48" value="fh_cki&#xa;parsed data" style="shape=cylinder3;boundedLbl=1;backgroundOutline=1;size=10;strokeWidth=2;whiteSpace=wrap;" vertex="1" parent="1">
          <mxGeometry x="2009" y="737" width="100" height="96" as="geometry" />
        </mxCell>
        <mxCell id="Yt73LQbdyz496-idZjtG-49" value="ssim-parser&#xa;Schedules" style="whiteSpace=wrap;strokeWidth=2;" vertex="1" parent="1">
          <mxGeometry x="1686" y="582" width="142" height="78" as="geometry" />
        </mxCell>
        <mxCell id="Yt73LQbdyz496-idZjtG-50" value="fh_ssim_messages&#xa;raw messages" style="shape=cylinder3;boundedLbl=1;backgroundOutline=1;size=10;strokeWidth=2;whiteSpace=wrap;" vertex="1" parent="1">
          <mxGeometry x="1753" y="427" width="144" height="103" as="geometry" />
        </mxCell>
        <mxCell id="Yt73LQbdyz496-idZjtG-51" value="fh_ssim&#xa;parsed data" style="shape=cylinder3;boundedLbl=1;backgroundOutline=1;size=10;strokeWidth=2;whiteSpace=wrap;" vertex="1" parent="1">
          <mxGeometry x="1707" y="737" width="100" height="96" as="geometry" />
        </mxCell>
        <mxCell id="Yt73LQbdyz496-idZjtG-52" value="orchestrator_queue.fifo&#xa;MessageGroupId = AnchorKey" style="whiteSpace=wrap;strokeWidth=2;" vertex="1" parent="1">
          <mxGeometry x="374" y="735" width="260" height="102" as="geometry" />
        </mxCell>
        <mxCell id="Yt73LQbdyz496-idZjtG-53" value="Flight Orchestrator&#xa;-----------&#xa;* Recibe datos parseados&#xa;* Extrae FUID + 6 campos&#xa;* Entrada específica por tipo&#xa;* Flexible matching&#xa;* Precedence management&#xa;* Domain routing" style="whiteSpace=wrap;strokeWidth=2;" vertex="1" parent="1">
          <mxGeometry x="374" y="962" width="260" height="246" as="geometry" />
        </mxCell>
        <mxCell id="Yt73LQbdyz496-idZjtG-54" value="fh_orchestrator&#xa;-----------&#xa;flights (identifiers)&#xa;message_log (audit)" style="shape=cylinder3;boundedLbl=1;backgroundOutline=1;size=10;strokeWidth=2;whiteSpace=wrap;" vertex="1" parent="1">
          <mxGeometry x="308" y="1283" width="158" height="153" as="geometry" />
        </mxCell>
        <mxCell id="Yt73LQbdyz496-idZjtG-55" value="resources_events.fifo" style="whiteSpace=wrap;strokeWidth=2;" vertex="1" parent="1">
          <mxGeometry x="3629" y="1332" width="214" height="54" as="geometry" />
        </mxCell>
        <mxCell id="Yt73LQbdyz496-idZjtG-56" value="timeline_events.fifo" style="whiteSpace=wrap;strokeWidth=2;" vertex="1" parent="1">
          <mxGeometry x="3361" y="1332" width="206" height="54" as="geometry" />
        </mxCell>
        <mxCell id="Yt73LQbdyz496-idZjtG-57" value="delays_events.fifo" style="whiteSpace=wrap;strokeWidth=2;" vertex="1" parent="1">
          <mxGeometry x="3107" y="1332" width="191" height="54" as="geometry" />
        </mxCell>
        <mxCell id="Yt73LQbdyz496-idZjtG-58" value="crew_events.fifo" style="whiteSpace=wrap;strokeWidth=2;" vertex="1" parent="1">
          <mxGeometry x="2865" y="1332" width="181" height="54" as="geometry" />
        </mxCell>
        <mxCell id="Yt73LQbdyz496-idZjtG-59" value="alerts_events.fifo" style="whiteSpace=wrap;strokeWidth=2;" vertex="1" parent="1">
          <mxGeometry x="2616" y="1332" width="187" height="54" as="geometry" />
        </mxCell>
        <mxCell id="Yt73LQbdyz496-idZjtG-60" value="passengers_events.fifo" style="whiteSpace=wrap;strokeWidth=2;" vertex="1" parent="1">
          <mxGeometry x="2332" y="1332" width="223" height="54" as="geometry" />
        </mxCell>
        <mxCell id="Yt73LQbdyz496-idZjtG-61" value="baggage_events.fifo" style="whiteSpace=wrap;strokeWidth=2;" vertex="1" parent="1">
          <mxGeometry x="2067" y="1332" width="205" height="54" as="geometry" />
        </mxCell>
        <mxCell id="Yt73LQbdyz496-idZjtG-62" value="fuel_events.fifo" style="whiteSpace=wrap;strokeWidth=2;" vertex="1" parent="1">
          <mxGeometry x="1832" y="1332" width="174" height="54" as="geometry" />
        </mxCell>
        <mxCell id="Yt73LQbdyz496-idZjtG-63" value="aircraft_events.fifo" style="whiteSpace=wrap;strokeWidth=2;" vertex="1" parent="1">
          <mxGeometry x="1569" y="1332" width="200" height="54" as="geometry" />
        </mxCell>
        <mxCell id="Yt73LQbdyz496-idZjtG-64" value="schedules_events.fifo" style="whiteSpace=wrap;strokeWidth=2;" vertex="1" parent="1">
          <mxGeometry x="1292" y="1332" width="216" height="54" as="geometry" />
        </mxCell>
        <mxCell id="Yt73LQbdyz496-idZjtG-65" value="turnaround_events.fifo" style="whiteSpace=wrap;strokeWidth=2;" vertex="1" parent="1">
          <mxGeometry x="1005" y="1332" width="226" height="54" as="geometry" />
        </mxCell>
        <mxCell id="Yt73LQbdyz496-idZjtG-66" value="codeshare_events.fifo" style="whiteSpace=wrap;strokeWidth=2;" vertex="1" parent="1">
          <mxGeometry x="724" y="1332" width="219" height="54" as="geometry" />
        </mxCell>
        <mxCell id="Yt73LQbdyz496-idZjtG-67" value="Resources Service" style="whiteSpace=wrap;strokeWidth=2;" vertex="1" parent="1">
          <mxGeometry x="3643" y="1560" width="187" height="54" as="geometry" />
        </mxCell>
        <mxCell id="Yt73LQbdyz496-idZjtG-68" value="fh_resource" style="shape=cylinder3;boundedLbl=1;backgroundOutline=1;size=10;strokeWidth=2;whiteSpace=wrap;" vertex="1" parent="1">
          <mxGeometry x="3718" y="1740" width="100" height="72" as="geometry" />
        </mxCell>
        <mxCell id="Yt73LQbdyz496-idZjtG-69" value="Timeline Service" style="whiteSpace=wrap;strokeWidth=2;" vertex="1" parent="1">
          <mxGeometry x="3374" y="1560" width="178" height="54" as="geometry" />
        </mxCell>
        <mxCell id="Yt73LQbdyz496-idZjtG-70" value="fh_timeline" style="shape=cylinder3;boundedLbl=1;backgroundOutline=1;size=10;strokeWidth=2;whiteSpace=wrap;" vertex="1" parent="1">
          <mxGeometry x="3445" y="1740" width="98" height="72" as="geometry" />
        </mxCell>
        <mxCell id="Yt73LQbdyz496-idZjtG-71" value="Delays Service" style="whiteSpace=wrap;strokeWidth=2;" vertex="1" parent="1">
          <mxGeometry x="3122" y="1560" width="163" height="54" as="geometry" />
        </mxCell>
        <mxCell id="Yt73LQbdyz496-idZjtG-72" value="fh_delay" style="shape=cylinder3;boundedLbl=1;backgroundOutline=1;size=10;strokeWidth=2;whiteSpace=wrap;" vertex="1" parent="1">
          <mxGeometry x="3196" y="1743" width="77" height="68" as="geometry" />
        </mxCell>
        <mxCell id="Yt73LQbdyz496-idZjtG-73" value="Crew Service" style="whiteSpace=wrap;strokeWidth=2;" vertex="1" parent="1">
          <mxGeometry x="2879" y="1560" width="153" height="54" as="geometry" />
        </mxCell>
        <mxCell id="Yt73LQbdyz496-idZjtG-74" value="fh_crew" style="shape=cylinder3;boundedLbl=1;backgroundOutline=1;size=10;strokeWidth=2;whiteSpace=wrap;" vertex="1" parent="1">
          <mxGeometry x="2949" y="1743" width="73" height="67" as="geometry" />
        </mxCell>
        <mxCell id="Yt73LQbdyz496-idZjtG-75" value="Alerts Service" style="whiteSpace=wrap;strokeWidth=2;" vertex="1" parent="1">
          <mxGeometry x="2630" y="1560" width="158" height="54" as="geometry" />
        </mxCell>
        <mxCell id="Yt73LQbdyz496-idZjtG-76" value="fh_alert" style="shape=cylinder3;boundedLbl=1;backgroundOutline=1;size=10;strokeWidth=2;whiteSpace=wrap;" vertex="1" parent="1">
          <mxGeometry x="2705" y="1743" width="72" height="67" as="geometry" />
        </mxCell>
        <mxCell id="Yt73LQbdyz496-idZjtG-77" value="Passengers Service" style="whiteSpace=wrap;strokeWidth=2;" vertex="1" parent="1">
          <mxGeometry x="2347" y="1560" width="193" height="54" as="geometry" />
        </mxCell>
        <mxCell id="Yt73LQbdyz496-idZjtG-78" value="fh_pax" style="shape=cylinder3;boundedLbl=1;backgroundOutline=1;size=10;strokeWidth=2;whiteSpace=wrap;" vertex="1" parent="1">
          <mxGeometry x="2455" y="1744" width="63" height="64" as="geometry" />
        </mxCell>
        <mxCell id="Yt73LQbdyz496-idZjtG-79" value="Baggage Service" style="whiteSpace=wrap;strokeWidth=2;" vertex="1" parent="1">
          <mxGeometry x="2082" y="1560" width="175" height="54" as="geometry" />
        </mxCell>
        <mxCell id="Yt73LQbdyz496-idZjtG-80" value="fh_bag" style="shape=cylinder3;boundedLbl=1;backgroundOutline=1;size=10;strokeWidth=2;whiteSpace=wrap;" vertex="1" parent="1">
          <mxGeometry x="2176" y="1744" width="63" height="64" as="geometry" />
        </mxCell>
        <mxCell id="Yt73LQbdyz496-idZjtG-81" value="Fuel Service" style="whiteSpace=wrap;strokeWidth=2;" vertex="1" parent="1">
          <mxGeometry x="1845" y="1560" width="147" height="54" as="geometry" />
        </mxCell>
        <mxCell id="Yt73LQbdyz496-idZjtG-82" value="fh_fuel" style="shape=cylinder3;boundedLbl=1;backgroundOutline=1;size=10;strokeWidth=2;whiteSpace=wrap;" vertex="1" parent="1">
          <mxGeometry x="1916" y="1744" width="66" height="65" as="geometry" />
        </mxCell>
        <mxCell id="Yt73LQbdyz496-idZjtG-83" value="Aircraft Service" style="whiteSpace=wrap;strokeWidth=2;" vertex="1" parent="1">
          <mxGeometry x="1584" y="1560" width="172" height="54" as="geometry" />
        </mxCell>
        <mxCell id="Yt73LQbdyz496-idZjtG-84" value="fh_aircraft" style="shape=cylinder3;boundedLbl=1;backgroundOutline=1;size=10;strokeWidth=2;whiteSpace=wrap;" vertex="1" parent="1">
          <mxGeometry x="1653" y="1741" width="92" height="71" as="geometry" />
        </mxCell>
        <mxCell id="Yt73LQbdyz496-idZjtG-85" value="Schedules Service" style="whiteSpace=wrap;strokeWidth=2;" vertex="1" parent="1">
          <mxGeometry x="1306" y="1560" width="187" height="54" as="geometry" />
        </mxCell>
        <mxCell id="Yt73LQbdyz496-idZjtG-86" value="fh_schedule" style="shape=cylinder3;boundedLbl=1;backgroundOutline=1;size=10;strokeWidth=2;whiteSpace=wrap;" vertex="1" parent="1">
          <mxGeometry x="1381" y="1740" width="101" height="73" as="geometry" />
        </mxCell>
        <mxCell id="Yt73LQbdyz496-idZjtG-87" value="Turnaround Service" style="whiteSpace=wrap;strokeWidth=2;" vertex="1" parent="1">
          <mxGeometry x="1019" y="1560" width="197" height="54" as="geometry" />
        </mxCell>
        <mxCell id="Yt73LQbdyz496-idZjtG-88" value="fh_turnaround" style="shape=cylinder3;boundedLbl=1;backgroundOutline=1;size=10;strokeWidth=2;whiteSpace=wrap;" vertex="1" parent="1">
          <mxGeometry x="1089" y="1739" width="118" height="75" as="geometry" />
        </mxCell>
        <mxCell id="Yt73LQbdyz496-idZjtG-89" value="Codeshare Service" style="whiteSpace=wrap;strokeWidth=2;" vertex="1" parent="1">
          <mxGeometry x="738" y="1560" width="191" height="54" as="geometry" />
        </mxCell>
        <mxCell id="Yt73LQbdyz496-idZjtG-90" value="fh_codeshare" style="shape=cylinder3;boundedLbl=1;backgroundOutline=1;size=10;strokeWidth=2;whiteSpace=wrap;" vertex="1" parent="1">
          <mxGeometry x="809" y="1739" width="111" height="74" as="geometry" />
        </mxCell>
        <mxCell id="Yt73LQbdyz496-idZjtG-91" value="Event Publisher&#xa;-----------&#xa;* FUID → External ID&#xa;* 6 campos únicos&#xa;* Payload adaptation&#xa;* EventBridge publishing" style="whiteSpace=wrap;strokeWidth=2;" vertex="1" parent="1">
          <mxGeometry x="326" y="1689" width="234" height="174" as="geometry" />
        </mxCell>
        <mxCell id="Yt73LQbdyz496-idZjtG-92" value="Redis Cache&#xa;Flight mappings" style="shape=cylinder3;boundedLbl=1;backgroundOutline=1;size=10;strokeWidth=2;whiteSpace=wrap;" vertex="1" parent="1">
          <mxGeometry x="389" y="1988" width="128" height="101" as="geometry" />
        </mxCell>
        <mxCell id="Yt73LQbdyz496-idZjtG-93" value="AWS EventBridge&#xa;flight-events-bus" style="whiteSpace=wrap;strokeWidth=2;" vertex="1" parent="1">
          <mxGeometry x="55" y="2000" width="181" height="78" as="geometry" />
        </mxCell>
        <mxCell id="Yt73LQbdyz496-idZjtG-94" value="Consumers&#xa;Mobile Apps&#xa;Web&#xa;Partners" style="whiteSpace=wrap;strokeWidth=2;" vertex="1" parent="1">
          <mxGeometry x="73" y="2164" width="145" height="126" as="geometry" />
        </mxCell>
        <mxCell id="Yt73LQbdyz496-idZjtG-95" value="" style="curved=1;startArrow=none;endArrow=block;exitX=0.5;exitY=1;entryX=0.5;entryY=0;rounded=0;" edge="1" parent="1" source="Yt73LQbdyz496-idZjtG-27" target="Yt73LQbdyz496-idZjtG-32">
          <mxGeometry relative="1" as="geometry">
            <Array as="points" />
          </mxGeometry>
        </mxCell>
        <mxCell id="Yt73LQbdyz496-idZjtG-96" value="" style="curved=1;startArrow=none;endArrow=block;exitX=0.5;exitY=1;entryX=0.5;entryY=0;rounded=0;" edge="1" parent="1" source="Yt73LQbdyz496-idZjtG-31" target="Yt73LQbdyz496-idZjtG-33">
          <mxGeometry relative="1" as="geometry">
            <Array as="points" />
          </mxGeometry>
        </mxCell>
        <mxCell id="Yt73LQbdyz496-idZjtG-97" value="" style="curved=1;startArrow=none;endArrow=block;exitX=0.5;exitY=1;entryX=0.5;entryY=0;rounded=0;" edge="1" parent="1" source="Yt73LQbdyz496-idZjtG-28" target="Yt73LQbdyz496-idZjtG-34">
          <mxGeometry relative="1" as="geometry">
            <Array as="points" />
          </mxGeometry>
        </mxCell>
        <mxCell id="Yt73LQbdyz496-idZjtG-98" value="" style="curved=1;startArrow=none;endArrow=block;exitX=0.5;exitY=1;entryX=0.5;entryY=0;rounded=0;" edge="1" parent="1" source="Yt73LQbdyz496-idZjtG-30" target="Yt73LQbdyz496-idZjtG-35">
          <mxGeometry relative="1" as="geometry">
            <Array as="points" />
          </mxGeometry>
        </mxCell>
        <mxCell id="Yt73LQbdyz496-idZjtG-99" value="" style="curved=1;startArrow=none;endArrow=block;exitX=0.51;exitY=1;entryX=0.5;entryY=0;rounded=0;" edge="1" parent="1" source="Yt73LQbdyz496-idZjtG-29" target="Yt73LQbdyz496-idZjtG-36">
          <mxGeometry relative="1" as="geometry">
            <Array as="points" />
          </mxGeometry>
        </mxCell>
        <mxCell id="Yt73LQbdyz496-idZjtG-100" value="" style="curved=1;startArrow=none;endArrow=block;exitX=0.5;exitY=1;entryX=0.3;entryY=0;rounded=0;" edge="1" parent="1" source="Yt73LQbdyz496-idZjtG-32" target="Yt73LQbdyz496-idZjtG-38">
          <mxGeometry relative="1" as="geometry">
            <Array as="points">
              <mxPoint x="3045" y="401" />
            </Array>
          </mxGeometry>
        </mxCell>
        <mxCell id="Yt73LQbdyz496-idZjtG-101" value="" style="curved=1;startArrow=none;endArrow=block;exitX=0.69;exitY=0;entryX=0.87;entryY=1;rounded=0;" edge="1" parent="1" source="Yt73LQbdyz496-idZjtG-38" target="Yt73LQbdyz496-idZjtG-32">
          <mxGeometry relative="1" as="geometry">
            <Array as="points">
              <mxPoint x="3133" y="401" />
              <mxPoint x="3133" y="326" />
            </Array>
          </mxGeometry>
        </mxCell>
        <mxCell id="Yt73LQbdyz496-idZjtG-102" value="" style="curved=1;startArrow=none;endArrow=block;exitX=0.22;exitY=1;entryX=0.34;entryY=-0.01;rounded=0;" edge="1" parent="1" source="Yt73LQbdyz496-idZjtG-32" target="Yt73LQbdyz496-idZjtG-37">
          <mxGeometry relative="1" as="geometry">
            <Array as="points">
              <mxPoint x="2980" y="326" />
              <mxPoint x="2980" y="557" />
            </Array>
          </mxGeometry>
        </mxCell>
        <mxCell id="Yt73LQbdyz496-idZjtG-103" value="" style="curved=1;startArrow=none;endArrow=block;exitX=0.79;exitY=-0.01;entryX=0.7;entryY=1;rounded=0;" edge="1" parent="1" source="Yt73LQbdyz496-idZjtG-37" target="Yt73LQbdyz496-idZjtG-38">
          <mxGeometry relative="1" as="geometry">
            <Array as="points">
              <mxPoint x="3135" y="557" />
            </Array>
          </mxGeometry>
        </mxCell>
        <mxCell id="Yt73LQbdyz496-idZjtG-104" value="" style="curved=1;startArrow=none;endArrow=block;exitX=0.3;exitY=1;entryX=0.53;entryY=-0.01;rounded=0;" edge="1" parent="1" source="Yt73LQbdyz496-idZjtG-38" target="Yt73LQbdyz496-idZjtG-37">
          <mxGeometry relative="1" as="geometry">
            <Array as="points">
              <mxPoint x="3045" y="557" />
            </Array>
          </mxGeometry>
        </mxCell>
        <mxCell id="Yt73LQbdyz496-idZjtG-105" value="" style="curved=1;startArrow=none;endArrow=block;exitX=0.36;exitY=0.99;entryX=0.18;entryY=0;rounded=0;" edge="1" parent="1" source="Yt73LQbdyz496-idZjtG-37" target="Yt73LQbdyz496-idZjtG-39">
          <mxGeometry relative="1" as="geometry">
            <Array as="points">
              <mxPoint x="2985" y="685" />
              <mxPoint x="2985" y="710" />
            </Array>
          </mxGeometry>
        </mxCell>
        <mxCell id="Yt73LQbdyz496-idZjtG-106" value="" style="curved=1;startArrow=none;endArrow=block;exitX=0.99;exitY=0.11;entryX=0.79;entryY=0.99;rounded=0;" edge="1" parent="1" source="Yt73LQbdyz496-idZjtG-39" target="Yt73LQbdyz496-idZjtG-37">
          <mxGeometry relative="1" as="geometry">
            <Array as="points">
              <mxPoint x="3135" y="710" />
              <mxPoint x="3135" y="685" />
            </Array>
          </mxGeometry>
        </mxCell>
        <mxCell id="Yt73LQbdyz496-idZjtG-107" value="" style="curved=1;startArrow=none;endArrow=block;exitX=0.5;exitY=1;entryX=0.3;entryY=0;rounded=0;" edge="1" parent="1" source="Yt73LQbdyz496-idZjtG-33" target="Yt73LQbdyz496-idZjtG-41">
          <mxGeometry relative="1" as="geometry">
            <Array as="points">
              <mxPoint x="2704" y="401" />
            </Array>
          </mxGeometry>
        </mxCell>
        <mxCell id="Yt73LQbdyz496-idZjtG-108" value="" style="curved=1;startArrow=none;endArrow=block;exitX=0.7;exitY=0;entryX=0.86;entryY=1;rounded=0;" edge="1" parent="1" source="Yt73LQbdyz496-idZjtG-41" target="Yt73LQbdyz496-idZjtG-33">
          <mxGeometry relative="1" as="geometry">
            <Array as="points">
              <mxPoint x="2801" y="401" />
              <mxPoint x="2801" y="326" />
            </Array>
          </mxGeometry>
        </mxCell>
        <mxCell id="Yt73LQbdyz496-idZjtG-109" value="" style="curved=1;startArrow=none;endArrow=block;exitX=0.25;exitY=1;entryX=0.34;entryY=-0.01;rounded=0;" edge="1" parent="1" source="Yt73LQbdyz496-idZjtG-33" target="Yt73LQbdyz496-idZjtG-40">
          <mxGeometry relative="1" as="geometry">
            <Array as="points">
              <mxPoint x="2636" y="326" />
              <mxPoint x="2636" y="557" />
            </Array>
          </mxGeometry>
        </mxCell>
        <mxCell id="Yt73LQbdyz496-idZjtG-110" value="" style="curved=1;startArrow=none;endArrow=block;exitX=0.96;exitY=-0.01;entryX=0.7;entryY=1;rounded=0;" edge="1" parent="1" source="Yt73LQbdyz496-idZjtG-40" target="Yt73LQbdyz496-idZjtG-41">
          <mxGeometry relative="1" as="geometry">
            <Array as="points">
              <mxPoint x="2801" y="557" />
            </Array>
          </mxGeometry>
        </mxCell>
        <mxCell id="Yt73LQbdyz496-idZjtG-111" value="" style="curved=1;startArrow=none;endArrow=block;exitX=0.3;exitY=1;entryX=0.59;entryY=-0.01;rounded=0;" edge="1" parent="1" source="Yt73LQbdyz496-idZjtG-41" target="Yt73LQbdyz496-idZjtG-40">
          <mxGeometry relative="1" as="geometry">
            <Array as="points">
              <mxPoint x="2704" y="557" />
            </Array>
          </mxGeometry>
        </mxCell>
        <mxCell id="Yt73LQbdyz496-idZjtG-112" value="" style="curved=1;startArrow=none;endArrow=block;exitX=0.36;exitY=0.99;entryX=0.26;entryY=0;rounded=0;" edge="1" parent="1" source="Yt73LQbdyz496-idZjtG-40" target="Yt73LQbdyz496-idZjtG-42">
          <mxGeometry relative="1" as="geometry">
            <Array as="points">
              <mxPoint x="2641" y="685" />
              <mxPoint x="2641" y="710" />
            </Array>
          </mxGeometry>
        </mxCell>
        <mxCell id="Yt73LQbdyz496-idZjtG-113" value="" style="curved=1;startArrow=none;endArrow=block;exitX=0.99;exitY=0.14;entryX=0.9;entryY=0.99;rounded=0;" edge="1" parent="1" source="Yt73LQbdyz496-idZjtG-42" target="Yt73LQbdyz496-idZjtG-40">
          <mxGeometry relative="1" as="geometry">
            <Array as="points">
              <mxPoint x="2785" y="710" />
              <mxPoint x="2785" y="685" />
            </Array>
          </mxGeometry>
        </mxCell>
        <mxCell id="Yt73LQbdyz496-idZjtG-114" value="" style="curved=1;startArrow=none;endArrow=block;exitX=0.5;exitY=1;entryX=0.3;entryY=0;rounded=0;" edge="1" parent="1" source="Yt73LQbdyz496-idZjtG-34" target="Yt73LQbdyz496-idZjtG-44">
          <mxGeometry relative="1" as="geometry">
            <Array as="points">
              <mxPoint x="2385" y="401" />
            </Array>
          </mxGeometry>
        </mxCell>
        <mxCell id="Yt73LQbdyz496-idZjtG-115" value="" style="curved=1;startArrow=none;endArrow=block;exitX=0.7;exitY=0;entryX=0.87;entryY=1;rounded=0;" edge="1" parent="1" source="Yt73LQbdyz496-idZjtG-44" target="Yt73LQbdyz496-idZjtG-34">
          <mxGeometry relative="1" as="geometry">
            <Array as="points">
              <mxPoint x="2474" y="401" />
              <mxPoint x="2474" y="326" />
            </Array>
          </mxGeometry>
        </mxCell>
        <mxCell id="Yt73LQbdyz496-idZjtG-116" value="" style="curved=1;startArrow=none;endArrow=block;exitX=0.22;exitY=1;entryX=0.34;entryY=-0.01;rounded=0;" edge="1" parent="1" source="Yt73LQbdyz496-idZjtG-34" target="Yt73LQbdyz496-idZjtG-43">
          <mxGeometry relative="1" as="geometry">
            <Array as="points">
              <mxPoint x="2321" y="326" />
              <mxPoint x="2321" y="557" />
            </Array>
          </mxGeometry>
        </mxCell>
        <mxCell id="Yt73LQbdyz496-idZjtG-117" value="" style="curved=1;startArrow=none;endArrow=block;exitX=0.98;exitY=-0.01;entryX=0.7;entryY=1;rounded=0;" edge="1" parent="1" source="Yt73LQbdyz496-idZjtG-43" target="Yt73LQbdyz496-idZjtG-44">
          <mxGeometry relative="1" as="geometry">
            <Array as="points">
              <mxPoint x="2474" y="557" />
            </Array>
          </mxGeometry>
        </mxCell>
        <mxCell id="Yt73LQbdyz496-idZjtG-118" value="" style="curved=1;startArrow=none;endArrow=block;exitX=0.3;exitY=1;entryX=0.61;entryY=-0.01;rounded=0;" edge="1" parent="1" source="Yt73LQbdyz496-idZjtG-44" target="Yt73LQbdyz496-idZjtG-43">
          <mxGeometry relative="1" as="geometry">
            <Array as="points">
              <mxPoint x="2385" y="557" />
            </Array>
          </mxGeometry>
        </mxCell>
        <mxCell id="Yt73LQbdyz496-idZjtG-119" value="" style="curved=1;startArrow=none;endArrow=block;exitX=0.36;exitY=0.99;entryX=0.28;entryY=0;rounded=0;" edge="1" parent="1" source="Yt73LQbdyz496-idZjtG-43" target="Yt73LQbdyz496-idZjtG-45">
          <mxGeometry relative="1" as="geometry">
            <Array as="points">
              <mxPoint x="2325" y="685" />
              <mxPoint x="2325" y="710" />
            </Array>
          </mxGeometry>
        </mxCell>
        <mxCell id="Yt73LQbdyz496-idZjtG-120" value="" style="curved=1;startArrow=none;endArrow=block;exitX=0.99;exitY=0.11;entryX=0.91;entryY=0.99;rounded=0;" edge="1" parent="1" source="Yt73LQbdyz496-idZjtG-45" target="Yt73LQbdyz496-idZjtG-43">
          <mxGeometry relative="1" as="geometry">
            <Array as="points">
              <mxPoint x="2458" y="710" />
              <mxPoint x="2458" y="685" />
            </Array>
          </mxGeometry>
        </mxCell>
        <mxCell id="Yt73LQbdyz496-idZjtG-121" value="" style="curved=1;startArrow=none;endArrow=block;exitX=0.5;exitY=1;entryX=0.3;entryY=0;rounded=0;" edge="1" parent="1" source="Yt73LQbdyz496-idZjtG-35" target="Yt73LQbdyz496-idZjtG-47">
          <mxGeometry relative="1" as="geometry">
            <Array as="points">
              <mxPoint x="2083" y="401" />
            </Array>
          </mxGeometry>
        </mxCell>
        <mxCell id="Yt73LQbdyz496-idZjtG-122" value="" style="curved=1;startArrow=none;endArrow=block;exitX=0.7;exitY=0;entryX=0.83;entryY=1;rounded=0;" edge="1" parent="1" source="Yt73LQbdyz496-idZjtG-47" target="Yt73LQbdyz496-idZjtG-35">
          <mxGeometry relative="1" as="geometry">
            <Array as="points">
              <mxPoint x="2165" y="401" />
              <mxPoint x="2165" y="326" />
            </Array>
          </mxGeometry>
        </mxCell>
        <mxCell id="Yt73LQbdyz496-idZjtG-123" value="" style="curved=1;startArrow=none;endArrow=block;exitX=0.26;exitY=1;entryX=0.33;entryY=-0.01;rounded=0;" edge="1" parent="1" source="Yt73LQbdyz496-idZjtG-35" target="Yt73LQbdyz496-idZjtG-46">
          <mxGeometry relative="1" as="geometry">
            <Array as="points">
              <mxPoint x="2022" y="326" />
              <mxPoint x="2022" y="557" />
            </Array>
          </mxGeometry>
        </mxCell>
        <mxCell id="Yt73LQbdyz496-idZjtG-124" value="" style="curved=1;startArrow=none;endArrow=block;exitX=0.99;exitY=-0.01;entryX=0.7;entryY=1;rounded=0;" edge="1" parent="1" source="Yt73LQbdyz496-idZjtG-46" target="Yt73LQbdyz496-idZjtG-47">
          <mxGeometry relative="1" as="geometry">
            <Array as="points">
              <mxPoint x="2165" y="557" />
            </Array>
          </mxGeometry>
        </mxCell>
        <mxCell id="Yt73LQbdyz496-idZjtG-125" value="" style="curved=1;startArrow=none;endArrow=block;exitX=0.3;exitY=1;entryX=0.61;entryY=-0.01;rounded=0;" edge="1" parent="1" source="Yt73LQbdyz496-idZjtG-47" target="Yt73LQbdyz496-idZjtG-46">
          <mxGeometry relative="1" as="geometry">
            <Array as="points">
              <mxPoint x="2083" y="557" />
            </Array>
          </mxGeometry>
        </mxCell>
        <mxCell id="Yt73LQbdyz496-idZjtG-126" value="" style="curved=1;startArrow=none;endArrow=block;exitX=0.36;exitY=0.99;entryX=0.3;entryY=0;rounded=0;" edge="1" parent="1" source="Yt73LQbdyz496-idZjtG-46" target="Yt73LQbdyz496-idZjtG-48">
          <mxGeometry relative="1" as="geometry">
            <Array as="points">
              <mxPoint x="2028" y="685" />
              <mxPoint x="2028" y="710" />
            </Array>
          </mxGeometry>
        </mxCell>
        <mxCell id="Yt73LQbdyz496-idZjtG-127" value="" style="curved=1;startArrow=none;endArrow=block;exitX=0.99;exitY=0.08;entryX=0.93;entryY=0.99;rounded=0;" edge="1" parent="1" source="Yt73LQbdyz496-idZjtG-48" target="Yt73LQbdyz496-idZjtG-46">
          <mxGeometry relative="1" as="geometry">
            <Array as="points">
              <mxPoint x="2150" y="710" />
              <mxPoint x="2150" y="685" />
            </Array>
          </mxGeometry>
        </mxCell>
        <mxCell id="Yt73LQbdyz496-idZjtG-128" value="" style="curved=1;startArrow=none;endArrow=block;exitX=0.38;exitY=1;entryX=0.33;entryY=0;rounded=0;" edge="1" parent="1" source="Yt73LQbdyz496-idZjtG-36" target="Yt73LQbdyz496-idZjtG-50">
          <mxGeometry relative="1" as="geometry">
            <Array as="points">
              <mxPoint x="1787" y="326" />
              <mxPoint x="1787" y="401" />
            </Array>
          </mxGeometry>
        </mxCell>
        <mxCell id="Yt73LQbdyz496-idZjtG-129" value="" style="curved=1;startArrow=none;endArrow=block;exitX=0.7;exitY=0;entryX=0.72;entryY=1;rounded=0;" edge="1" parent="1" source="Yt73LQbdyz496-idZjtG-50" target="Yt73LQbdyz496-idZjtG-36">
          <mxGeometry relative="1" as="geometry">
            <Array as="points">
              <mxPoint x="1868" y="401" />
              <mxPoint x="1868" y="326" />
            </Array>
          </mxGeometry>
        </mxCell>
        <mxCell id="Yt73LQbdyz496-idZjtG-130" value="" style="curved=1;startArrow=none;endArrow=block;exitX=0.09;exitY=1;entryX=0.33;entryY=-0.01;rounded=0;" edge="1" parent="1" source="Yt73LQbdyz496-idZjtG-36" target="Yt73LQbdyz496-idZjtG-49">
          <mxGeometry relative="1" as="geometry">
            <Array as="points">
              <mxPoint x="1718" y="326" />
              <mxPoint x="1718" y="557" />
            </Array>
          </mxGeometry>
        </mxCell>
        <mxCell id="Yt73LQbdyz496-idZjtG-131" value="" style="curved=1;startArrow=none;endArrow=block;exitX=0.98;exitY=-0.01;entryX=0.7;entryY=1;rounded=0;" edge="1" parent="1" source="Yt73LQbdyz496-idZjtG-49" target="Yt73LQbdyz496-idZjtG-50">
          <mxGeometry relative="1" as="geometry">
            <Array as="points">
              <mxPoint x="1868" y="557" />
            </Array>
          </mxGeometry>
        </mxCell>
        <mxCell id="Yt73LQbdyz496-idZjtG-132" value="" style="curved=1;startArrow=none;endArrow=block;exitX=0.3;exitY=1;entryX=0.6;entryY=-0.01;rounded=0;" edge="1" parent="1" source="Yt73LQbdyz496-idZjtG-50" target="Yt73LQbdyz496-idZjtG-49">
          <mxGeometry relative="1" as="geometry">
            <Array as="points">
              <mxPoint x="1781" y="557" />
            </Array>
          </mxGeometry>
        </mxCell>
        <mxCell id="Yt73LQbdyz496-idZjtG-133" value="" style="curved=1;startArrow=none;endArrow=block;exitX=0.36;exitY=0.99;entryX=0.29;entryY=0;rounded=0;" edge="1" parent="1" source="Yt73LQbdyz496-idZjtG-49" target="Yt73LQbdyz496-idZjtG-51">
          <mxGeometry relative="1" as="geometry">
            <Array as="points">
              <mxPoint x="1724" y="685" />
              <mxPoint x="1724" y="710" />
            </Array>
          </mxGeometry>
        </mxCell>
        <mxCell id="Yt73LQbdyz496-idZjtG-134" value="" style="curved=1;startArrow=none;endArrow=block;exitX=1;exitY=0.1;entryX=0.91;entryY=0.99;rounded=0;" edge="1" parent="1" source="Yt73LQbdyz496-idZjtG-51" target="Yt73LQbdyz496-idZjtG-49">
          <mxGeometry relative="1" as="geometry">
            <Array as="points">
              <mxPoint x="1854" y="710" />
              <mxPoint x="1854" y="685" />
            </Array>
          </mxGeometry>
        </mxCell>
        <mxCell id="Yt73LQbdyz496-idZjtG-135" value="" style="curved=1;startArrow=none;endArrow=block;exitX=0.29;exitY=0.99;entryX=1;entryY=0.46;rounded=0;" edge="1" parent="1" source="Yt73LQbdyz496-idZjtG-37" target="Yt73LQbdyz496-idZjtG-52">
          <mxGeometry relative="1" as="geometry">
            <Array as="points">
              <mxPoint x="2960" y="685" />
              <mxPoint x="2960" y="710" />
            </Array>
          </mxGeometry>
        </mxCell>
        <mxCell id="Yt73LQbdyz496-idZjtG-136" value="" style="curved=1;startArrow=none;endArrow=block;exitX=0.26;exitY=0.99;entryX=1;entryY=0.45;rounded=0;" edge="1" parent="1" source="Yt73LQbdyz496-idZjtG-40" target="Yt73LQbdyz496-idZjtG-52">
          <mxGeometry relative="1" as="geometry">
            <Array as="points">
              <mxPoint x="2616" y="685" />
              <mxPoint x="2616" y="710" />
            </Array>
          </mxGeometry>
        </mxCell>
        <mxCell id="Yt73LQbdyz496-idZjtG-137" value="" style="curved=1;startArrow=none;endArrow=block;exitX=0.25;exitY=0.99;entryX=1;entryY=0.44;rounded=0;" edge="1" parent="1" source="Yt73LQbdyz496-idZjtG-43" target="Yt73LQbdyz496-idZjtG-52">
          <mxGeometry relative="1" as="geometry">
            <Array as="points">
              <mxPoint x="2301" y="685" />
              <mxPoint x="2301" y="710" />
            </Array>
          </mxGeometry>
        </mxCell>
        <mxCell id="Yt73LQbdyz496-idZjtG-138" value="" style="curved=1;startArrow=none;endArrow=block;exitX=0.24;exitY=0.99;entryX=1;entryY=0.43;rounded=0;" edge="1" parent="1" source="Yt73LQbdyz496-idZjtG-46" target="Yt73LQbdyz496-idZjtG-52">
          <mxGeometry relative="1" as="geometry">
            <Array as="points">
              <mxPoint x="2002" y="685" />
              <mxPoint x="2002" y="710" />
            </Array>
          </mxGeometry>
        </mxCell>
        <mxCell id="Yt73LQbdyz496-idZjtG-139" value="" style="curved=1;startArrow=none;endArrow=block;exitX=0.24;exitY=0.99;entryX=1;entryY=0.41;rounded=0;" edge="1" parent="1" source="Yt73LQbdyz496-idZjtG-49" target="Yt73LQbdyz496-idZjtG-52">
          <mxGeometry relative="1" as="geometry">
            <Array as="points">
              <mxPoint x="1698" y="685" />
              <mxPoint x="1698" y="710" />
            </Array>
          </mxGeometry>
        </mxCell>
        <mxCell id="Yt73LQbdyz496-idZjtG-140" value="" style="curved=1;startArrow=none;endArrow=block;exitX=0.5;exitY=1;entryX=0.5;entryY=0;rounded=0;" edge="1" parent="1" source="Yt73LQbdyz496-idZjtG-52" target="Yt73LQbdyz496-idZjtG-53">
          <mxGeometry relative="1" as="geometry">
            <Array as="points" />
          </mxGeometry>
        </mxCell>
        <mxCell id="Yt73LQbdyz496-idZjtG-141" value="" style="curved=1;startArrow=none;endArrow=block;exitX=0;exitY=0.97;entryX=0.28;entryY=0;rounded=0;" edge="1" parent="1" source="Yt73LQbdyz496-idZjtG-53" target="Yt73LQbdyz496-idZjtG-54">
          <mxGeometry relative="1" as="geometry">
            <Array as="points">
              <mxPoint x="340" y="1233" />
              <mxPoint x="340" y="1258" />
            </Array>
          </mxGeometry>
        </mxCell>
        <mxCell id="Yt73LQbdyz496-idZjtG-142" value="" style="curved=1;startArrow=none;endArrow=block;exitX=0.55;exitY=0;entryX=0.16;entryY=1;rounded=0;" edge="1" parent="1" source="Yt73LQbdyz496-idZjtG-54" target="Yt73LQbdyz496-idZjtG-53">
          <mxGeometry relative="1" as="geometry">
            <Array as="points">
              <mxPoint x="397" y="1258" />
              <mxPoint x="397" y="1233" />
            </Array>
          </mxGeometry>
        </mxCell>
        <mxCell id="Yt73LQbdyz496-idZjtG-143" value="" style="curved=1;startArrow=none;endArrow=block;exitX=0.93;exitY=1;entryX=0;entryY=0.43;rounded=0;" edge="1" parent="1" source="Yt73LQbdyz496-idZjtG-53" target="Yt73LQbdyz496-idZjtG-55">
          <mxGeometry relative="1" as="geometry">
            <Array as="points">
              <mxPoint x="637" y="1233" />
              <mxPoint x="637" y="1258" />
            </Array>
          </mxGeometry>
        </mxCell>
        <mxCell id="Yt73LQbdyz496-idZjtG-144" value="" style="curved=1;startArrow=none;endArrow=block;exitX=0.86;exitY=1;entryX=0;entryY=0.43;rounded=0;" edge="1" parent="1" source="Yt73LQbdyz496-idZjtG-53" target="Yt73LQbdyz496-idZjtG-56">
          <mxGeometry relative="1" as="geometry">
            <Array as="points">
              <mxPoint x="617" y="1233" />
              <mxPoint x="617" y="1258" />
            </Array>
          </mxGeometry>
        </mxCell>
        <mxCell id="Yt73LQbdyz496-idZjtG-145" value="" style="curved=1;startArrow=none;endArrow=block;exitX=0.8;exitY=1;entryX=0;entryY=0.43;rounded=0;" edge="1" parent="1" source="Yt73LQbdyz496-idZjtG-53" target="Yt73LQbdyz496-idZjtG-57">
          <mxGeometry relative="1" as="geometry">
            <Array as="points">
              <mxPoint x="597" y="1233" />
              <mxPoint x="597" y="1258" />
            </Array>
          </mxGeometry>
        </mxCell>
        <mxCell id="Yt73LQbdyz496-idZjtG-146" value="" style="curved=1;startArrow=none;endArrow=block;exitX=0.73;exitY=1;entryX=0;entryY=0.43;rounded=0;" edge="1" parent="1" source="Yt73LQbdyz496-idZjtG-53" target="Yt73LQbdyz496-idZjtG-58">
          <mxGeometry relative="1" as="geometry">
            <Array as="points">
              <mxPoint x="577" y="1233" />
              <mxPoint x="577" y="1258" />
            </Array>
          </mxGeometry>
        </mxCell>
        <mxCell id="Yt73LQbdyz496-idZjtG-147" value="" style="curved=1;startArrow=none;endArrow=block;exitX=0.67;exitY=1;entryX=0;entryY=0.42;rounded=0;" edge="1" parent="1" source="Yt73LQbdyz496-idZjtG-53" target="Yt73LQbdyz496-idZjtG-59">
          <mxGeometry relative="1" as="geometry">
            <Array as="points">
              <mxPoint x="557" y="1233" />
              <mxPoint x="557" y="1258" />
            </Array>
          </mxGeometry>
        </mxCell>
        <mxCell id="Yt73LQbdyz496-idZjtG-148" value="" style="curved=1;startArrow=none;endArrow=block;exitX=0.61;exitY=1;entryX=0;entryY=0.39;rounded=0;" edge="1" parent="1" source="Yt73LQbdyz496-idZjtG-53" target="Yt73LQbdyz496-idZjtG-60">
          <mxGeometry relative="1" as="geometry">
            <Array as="points">
              <mxPoint x="537" y="1233" />
              <mxPoint x="537" y="1258" />
            </Array>
          </mxGeometry>
        </mxCell>
        <mxCell id="Yt73LQbdyz496-idZjtG-149" value="" style="curved=1;startArrow=none;endArrow=block;exitX=0.54;exitY=1;entryX=0;entryY=0.38;rounded=0;" edge="1" parent="1" source="Yt73LQbdyz496-idZjtG-53" target="Yt73LQbdyz496-idZjtG-61">
          <mxGeometry relative="1" as="geometry">
            <Array as="points">
              <mxPoint x="517" y="1233" />
              <mxPoint x="517" y="1258" />
            </Array>
          </mxGeometry>
        </mxCell>
        <mxCell id="Yt73LQbdyz496-idZjtG-150" value="" style="curved=1;startArrow=none;endArrow=block;exitX=0.48;exitY=1;entryX=0;entryY=0.38;rounded=0;" edge="1" parent="1" source="Yt73LQbdyz496-idZjtG-53" target="Yt73LQbdyz496-idZjtG-62">
          <mxGeometry relative="1" as="geometry">
            <Array as="points">
              <mxPoint x="497" y="1233" />
              <mxPoint x="497" y="1258" />
            </Array>
          </mxGeometry>
        </mxCell>
        <mxCell id="Yt73LQbdyz496-idZjtG-151" value="" style="curved=1;startArrow=none;endArrow=block;exitX=0.41;exitY=1;entryX=0;entryY=0.34;rounded=0;" edge="1" parent="1" source="Yt73LQbdyz496-idZjtG-53" target="Yt73LQbdyz496-idZjtG-63">
          <mxGeometry relative="1" as="geometry">
            <Array as="points">
              <mxPoint x="477" y="1233" />
              <mxPoint x="477" y="1258" />
            </Array>
          </mxGeometry>
        </mxCell>
        <mxCell id="Yt73LQbdyz496-idZjtG-152" value="" style="curved=1;startArrow=none;endArrow=block;exitX=0.35;exitY=1;entryX=0;entryY=0.29;rounded=0;" edge="1" parent="1" source="Yt73LQbdyz496-idZjtG-53" target="Yt73LQbdyz496-idZjtG-64">
          <mxGeometry relative="1" as="geometry">
            <Array as="points">
              <mxPoint x="457" y="1233" />
              <mxPoint x="457" y="1258" />
            </Array>
          </mxGeometry>
        </mxCell>
        <mxCell id="Yt73LQbdyz496-idZjtG-153" value="" style="curved=1;startArrow=none;endArrow=block;exitX=0.29;exitY=1;entryX=0;entryY=0.19;rounded=0;" edge="1" parent="1" source="Yt73LQbdyz496-idZjtG-53" target="Yt73LQbdyz496-idZjtG-65">
          <mxGeometry relative="1" as="geometry">
            <Array as="points">
              <mxPoint x="437" y="1233" />
              <mxPoint x="437" y="1258" />
            </Array>
          </mxGeometry>
        </mxCell>
        <mxCell id="Yt73LQbdyz496-idZjtG-154" value="" style="curved=1;startArrow=none;endArrow=block;exitX=0.22;exitY=1;entryX=0;entryY=0.01;rounded=0;" edge="1" parent="1" source="Yt73LQbdyz496-idZjtG-53" target="Yt73LQbdyz496-idZjtG-66">
          <mxGeometry relative="1" as="geometry">
            <Array as="points">
              <mxPoint x="417" y="1233" />
              <mxPoint x="417" y="1258" />
            </Array>
          </mxGeometry>
        </mxCell>
        <mxCell id="Yt73LQbdyz496-idZjtG-155" value="" style="curved=1;startArrow=none;endArrow=block;exitX=0.5;exitY=1;entryX=0.5;entryY=0.01;rounded=0;" edge="1" parent="1" source="Yt73LQbdyz496-idZjtG-55" target="Yt73LQbdyz496-idZjtG-67">
          <mxGeometry relative="1" as="geometry">
            <Array as="points" />
          </mxGeometry>
        </mxCell>
        <mxCell id="Yt73LQbdyz496-idZjtG-156" value="" style="curved=1;startArrow=none;endArrow=block;exitX=0.56;exitY=1.01;entryX=0.47;entryY=0;rounded=0;" edge="1" parent="1" source="Yt73LQbdyz496-idZjtG-67" target="Yt73LQbdyz496-idZjtG-68">
          <mxGeometry relative="1" as="geometry">
            <Array as="points">
              <mxPoint x="3758" y="1639" />
              <mxPoint x="3758" y="1664" />
            </Array>
          </mxGeometry>
        </mxCell>
        <mxCell id="Yt73LQbdyz496-idZjtG-157" value="" style="curved=1;startArrow=none;endArrow=block;exitX=0.61;exitY=0;entryX=0.68;entryY=1.01;rounded=0;" edge="1" parent="1" source="Yt73LQbdyz496-idZjtG-68" target="Yt73LQbdyz496-idZjtG-67">
          <mxGeometry relative="1" as="geometry">
            <Array as="points">
              <mxPoint x="3800" y="1664" />
              <mxPoint x="3800" y="1639" />
            </Array>
          </mxGeometry>
        </mxCell>
        <mxCell id="Yt73LQbdyz496-idZjtG-158" value="" style="curved=1;startArrow=none;endArrow=block;exitX=0.5;exitY=1;entryX=0.5;entryY=0.01;rounded=0;" edge="1" parent="1" source="Yt73LQbdyz496-idZjtG-56" target="Yt73LQbdyz496-idZjtG-69">
          <mxGeometry relative="1" as="geometry">
            <Array as="points" />
          </mxGeometry>
        </mxCell>
        <mxCell id="Yt73LQbdyz496-idZjtG-159" value="" style="curved=1;startArrow=none;endArrow=block;exitX=0.56;exitY=1.01;entryX=0.46;entryY=0.01;rounded=0;" edge="1" parent="1" source="Yt73LQbdyz496-idZjtG-69" target="Yt73LQbdyz496-idZjtG-70">
          <mxGeometry relative="1" as="geometry">
            <Array as="points">
              <mxPoint x="3484" y="1639" />
              <mxPoint x="3484" y="1664" />
            </Array>
          </mxGeometry>
        </mxCell>
        <mxCell id="Yt73LQbdyz496-idZjtG-160" value="" style="curved=1;startArrow=none;endArrow=block;exitX=0.6;exitY=0.01;entryX=0.68;entryY=1.01;rounded=0;" edge="1" parent="1" source="Yt73LQbdyz496-idZjtG-70" target="Yt73LQbdyz496-idZjtG-69">
          <mxGeometry relative="1" as="geometry">
            <Array as="points">
              <mxPoint x="3526" y="1664" />
              <mxPoint x="3526" y="1639" />
            </Array>
          </mxGeometry>
        </mxCell>
        <mxCell id="Yt73LQbdyz496-idZjtG-161" value="" style="curved=1;startArrow=none;endArrow=block;exitX=0.5;exitY=1;entryX=0.5;entryY=0.01;rounded=0;" edge="1" parent="1" source="Yt73LQbdyz496-idZjtG-57" target="Yt73LQbdyz496-idZjtG-71">
          <mxGeometry relative="1" as="geometry">
            <Array as="points" />
          </mxGeometry>
        </mxCell>
        <mxCell id="Yt73LQbdyz496-idZjtG-162" value="" style="curved=1;startArrow=none;endArrow=block;exitX=0.57;exitY=1.01;entryX=0.46;entryY=0;rounded=0;" edge="1" parent="1" source="Yt73LQbdyz496-idZjtG-71" target="Yt73LQbdyz496-idZjtG-72">
          <mxGeometry relative="1" as="geometry">
            <Array as="points">
              <mxPoint x="3224" y="1639" />
              <mxPoint x="3224" y="1664" />
            </Array>
          </mxGeometry>
        </mxCell>
        <mxCell id="Yt73LQbdyz496-idZjtG-163" value="" style="curved=1;startArrow=none;endArrow=block;exitX=0.6;exitY=0;entryX=0.68;entryY=1.01;rounded=0;" edge="1" parent="1" source="Yt73LQbdyz496-idZjtG-72" target="Yt73LQbdyz496-idZjtG-71">
          <mxGeometry relative="1" as="geometry">
            <Array as="points">
              <mxPoint x="3261" y="1664" />
              <mxPoint x="3261" y="1639" />
            </Array>
          </mxGeometry>
        </mxCell>
        <mxCell id="Yt73LQbdyz496-idZjtG-164" value="" style="curved=1;startArrow=none;endArrow=block;exitX=0.5;exitY=1;entryX=0.5;entryY=0.01;rounded=0;" edge="1" parent="1" source="Yt73LQbdyz496-idZjtG-58" target="Yt73LQbdyz496-idZjtG-73">
          <mxGeometry relative="1" as="geometry">
            <Array as="points" />
          </mxGeometry>
        </mxCell>
        <mxCell id="Yt73LQbdyz496-idZjtG-165" value="" style="curved=1;startArrow=none;endArrow=block;exitX=0.57;exitY=1.01;entryX=0.46;entryY=0;rounded=0;" edge="1" parent="1" source="Yt73LQbdyz496-idZjtG-73" target="Yt73LQbdyz496-idZjtG-74">
          <mxGeometry relative="1" as="geometry">
            <Array as="points">
              <mxPoint x="2975" y="1639" />
              <mxPoint x="2975" y="1664" />
            </Array>
          </mxGeometry>
        </mxCell>
        <mxCell id="Yt73LQbdyz496-idZjtG-166" value="" style="curved=1;startArrow=none;endArrow=block;exitX=0.6;exitY=0;entryX=0.69;entryY=1.01;rounded=0;" edge="1" parent="1" source="Yt73LQbdyz496-idZjtG-74" target="Yt73LQbdyz496-idZjtG-73">
          <mxGeometry relative="1" as="geometry">
            <Array as="points">
              <mxPoint x="3011" y="1664" />
              <mxPoint x="3011" y="1639" />
            </Array>
          </mxGeometry>
        </mxCell>
        <mxCell id="Yt73LQbdyz496-idZjtG-167" value="" style="curved=1;startArrow=none;endArrow=block;exitX=0.5;exitY=1;entryX=0.5;entryY=0.01;rounded=0;" edge="1" parent="1" source="Yt73LQbdyz496-idZjtG-59" target="Yt73LQbdyz496-idZjtG-75">
          <mxGeometry relative="1" as="geometry">
            <Array as="points" />
          </mxGeometry>
        </mxCell>
        <mxCell id="Yt73LQbdyz496-idZjtG-168" value="" style="curved=1;startArrow=none;endArrow=block;exitX=0.57;exitY=1.01;entryX=0.46;entryY=0;rounded=0;" edge="1" parent="1" source="Yt73LQbdyz496-idZjtG-75" target="Yt73LQbdyz496-idZjtG-76">
          <mxGeometry relative="1" as="geometry">
            <Array as="points">
              <mxPoint x="2731" y="1639" />
              <mxPoint x="2731" y="1664" />
            </Array>
          </mxGeometry>
        </mxCell>
        <mxCell id="Yt73LQbdyz496-idZjtG-169" value="" style="curved=1;startArrow=none;endArrow=block;exitX=0.61;exitY=0;entryX=0.69;entryY=1.01;rounded=0;" edge="1" parent="1" source="Yt73LQbdyz496-idZjtG-76" target="Yt73LQbdyz496-idZjtG-75">
          <mxGeometry relative="1" as="geometry">
            <Array as="points">
              <mxPoint x="2767" y="1664" />
              <mxPoint x="2767" y="1639" />
            </Array>
          </mxGeometry>
        </mxCell>
        <mxCell id="Yt73LQbdyz496-idZjtG-170" value="" style="curved=1;startArrow=none;endArrow=block;exitX=0.5;exitY=1;entryX=0.5;entryY=0.01;rounded=0;" edge="1" parent="1" source="Yt73LQbdyz496-idZjtG-60" target="Yt73LQbdyz496-idZjtG-77">
          <mxGeometry relative="1" as="geometry">
            <Array as="points" />
          </mxGeometry>
        </mxCell>
        <mxCell id="Yt73LQbdyz496-idZjtG-171" value="" style="curved=1;startArrow=none;endArrow=block;exitX=0.59;exitY=1.01;entryX=0.45;entryY=0.01;rounded=0;" edge="1" parent="1" source="Yt73LQbdyz496-idZjtG-77" target="Yt73LQbdyz496-idZjtG-78">
          <mxGeometry relative="1" as="geometry">
            <Array as="points">
              <mxPoint x="2476" y="1639" />
              <mxPoint x="2476" y="1664" />
            </Array>
          </mxGeometry>
        </mxCell>
        <mxCell id="Yt73LQbdyz496-idZjtG-172" value="" style="curved=1;startArrow=none;endArrow=block;exitX=0.6;exitY=0.01;entryX=0.68;entryY=1.01;rounded=0;" edge="1" parent="1" source="Yt73LQbdyz496-idZjtG-78" target="Yt73LQbdyz496-idZjtG-77">
          <mxGeometry relative="1" as="geometry">
            <Array as="points">
              <mxPoint x="2510" y="1664" />
              <mxPoint x="2510" y="1639" />
            </Array>
          </mxGeometry>
        </mxCell>
        <mxCell id="Yt73LQbdyz496-idZjtG-173" value="" style="curved=1;startArrow=none;endArrow=block;exitX=0.5;exitY=1;entryX=0.5;entryY=0.01;rounded=0;" edge="1" parent="1" source="Yt73LQbdyz496-idZjtG-61" target="Yt73LQbdyz496-idZjtG-79">
          <mxGeometry relative="1" as="geometry">
            <Array as="points" />
          </mxGeometry>
        </mxCell>
        <mxCell id="Yt73LQbdyz496-idZjtG-174" value="" style="curved=1;startArrow=none;endArrow=block;exitX=0.58;exitY=1.01;entryX=0.46;entryY=0.01;rounded=0;" edge="1" parent="1" source="Yt73LQbdyz496-idZjtG-79" target="Yt73LQbdyz496-idZjtG-80">
          <mxGeometry relative="1" as="geometry">
            <Array as="points">
              <mxPoint x="2198" y="1639" />
              <mxPoint x="2198" y="1664" />
            </Array>
          </mxGeometry>
        </mxCell>
        <mxCell id="Yt73LQbdyz496-idZjtG-175" value="" style="curved=1;startArrow=none;endArrow=block;exitX=0.61;exitY=0.01;entryX=0.68;entryY=1.01;rounded=0;" edge="1" parent="1" source="Yt73LQbdyz496-idZjtG-80" target="Yt73LQbdyz496-idZjtG-79">
          <mxGeometry relative="1" as="geometry">
            <Array as="points">
              <mxPoint x="2231" y="1664" />
              <mxPoint x="2231" y="1639" />
            </Array>
          </mxGeometry>
        </mxCell>
        <mxCell id="Yt73LQbdyz496-idZjtG-176" value="" style="curved=1;startArrow=none;endArrow=block;exitX=0.5;exitY=1;entryX=0.5;entryY=0.01;rounded=0;" edge="1" parent="1" source="Yt73LQbdyz496-idZjtG-62" target="Yt73LQbdyz496-idZjtG-81">
          <mxGeometry relative="1" as="geometry">
            <Array as="points" />
          </mxGeometry>
        </mxCell>
        <mxCell id="Yt73LQbdyz496-idZjtG-177" value="" style="curved=1;startArrow=none;endArrow=block;exitX=0.57;exitY=1.01;entryX=0.45;entryY=0;rounded=0;" edge="1" parent="1" source="Yt73LQbdyz496-idZjtG-81" target="Yt73LQbdyz496-idZjtG-82">
          <mxGeometry relative="1" as="geometry">
            <Array as="points">
              <mxPoint x="1939" y="1639" />
              <mxPoint x="1939" y="1664" />
            </Array>
          </mxGeometry>
        </mxCell>
        <mxCell id="Yt73LQbdyz496-idZjtG-178" value="" style="curved=1;startArrow=none;endArrow=block;exitX=0.6;exitY=0;entryX=0.69;entryY=1.01;rounded=0;" edge="1" parent="1" source="Yt73LQbdyz496-idZjtG-82" target="Yt73LQbdyz496-idZjtG-81">
          <mxGeometry relative="1" as="geometry">
            <Array as="points">
              <mxPoint x="1973" y="1664" />
              <mxPoint x="1973" y="1639" />
            </Array>
          </mxGeometry>
        </mxCell>
        <mxCell id="Yt73LQbdyz496-idZjtG-179" value="" style="curved=1;startArrow=none;endArrow=block;exitX=0.5;exitY=1;entryX=0.5;entryY=0.01;rounded=0;" edge="1" parent="1" source="Yt73LQbdyz496-idZjtG-63" target="Yt73LQbdyz496-idZjtG-83">
          <mxGeometry relative="1" as="geometry">
            <Array as="points" />
          </mxGeometry>
        </mxCell>
        <mxCell id="Yt73LQbdyz496-idZjtG-180" value="" style="curved=1;startArrow=none;endArrow=block;exitX=0.56;exitY=1.01;entryX=0.47;entryY=0;rounded=0;" edge="1" parent="1" source="Yt73LQbdyz496-idZjtG-83" target="Yt73LQbdyz496-idZjtG-84">
          <mxGeometry relative="1" as="geometry">
            <Array as="points">
              <mxPoint x="1689" y="1639" />
              <mxPoint x="1689" y="1664" />
            </Array>
          </mxGeometry>
        </mxCell>
        <mxCell id="Yt73LQbdyz496-idZjtG-181" value="" style="curved=1;startArrow=none;endArrow=block;exitX=0.61;exitY=0;entryX=0.68;entryY=1.01;rounded=0;" edge="1" parent="1" source="Yt73LQbdyz496-idZjtG-84" target="Yt73LQbdyz496-idZjtG-83">
          <mxGeometry relative="1" as="geometry">
            <Array as="points">
              <mxPoint x="1730" y="1664" />
              <mxPoint x="1730" y="1639" />
            </Array>
          </mxGeometry>
        </mxCell>
        <mxCell id="Yt73LQbdyz496-idZjtG-182" value="" style="curved=1;startArrow=none;endArrow=block;exitX=0.5;exitY=1;entryX=0.5;entryY=0.01;rounded=0;" edge="1" parent="1" source="Yt73LQbdyz496-idZjtG-64" target="Yt73LQbdyz496-idZjtG-85">
          <mxGeometry relative="1" as="geometry">
            <Array as="points" />
          </mxGeometry>
        </mxCell>
        <mxCell id="Yt73LQbdyz496-idZjtG-183" value="" style="curved=1;startArrow=none;endArrow=block;exitX=0.56;exitY=1.01;entryX=0.47;entryY=0;rounded=0;" edge="1" parent="1" source="Yt73LQbdyz496-idZjtG-85" target="Yt73LQbdyz496-idZjtG-86">
          <mxGeometry relative="1" as="geometry">
            <Array as="points">
              <mxPoint x="1421" y="1639" />
              <mxPoint x="1421" y="1664" />
            </Array>
          </mxGeometry>
        </mxCell>
        <mxCell id="Yt73LQbdyz496-idZjtG-184" value="" style="curved=1;startArrow=none;endArrow=block;exitX=0.6;exitY=0;entryX=0.68;entryY=1.01;rounded=0;" edge="1" parent="1" source="Yt73LQbdyz496-idZjtG-86" target="Yt73LQbdyz496-idZjtG-85">
          <mxGeometry relative="1" as="geometry">
            <Array as="points">
              <mxPoint x="1464" y="1664" />
              <mxPoint x="1464" y="1639" />
            </Array>
          </mxGeometry>
        </mxCell>
        <mxCell id="Yt73LQbdyz496-idZjtG-185" value="" style="curved=1;startArrow=none;endArrow=block;exitX=0.5;exitY=1;entryX=0.5;entryY=0.01;rounded=0;" edge="1" parent="1" source="Yt73LQbdyz496-idZjtG-65" target="Yt73LQbdyz496-idZjtG-87">
          <mxGeometry relative="1" as="geometry">
            <Array as="points" />
          </mxGeometry>
        </mxCell>
        <mxCell id="Yt73LQbdyz496-idZjtG-186" value="" style="curved=1;startArrow=none;endArrow=block;exitX=0.55;exitY=1.01;entryX=0.47;entryY=0;rounded=0;" edge="1" parent="1" source="Yt73LQbdyz496-idZjtG-87" target="Yt73LQbdyz496-idZjtG-88">
          <mxGeometry relative="1" as="geometry">
            <Array as="points">
              <mxPoint x="1138" y="1639" />
              <mxPoint x="1138" y="1664" />
            </Array>
          </mxGeometry>
        </mxCell>
        <mxCell id="Yt73LQbdyz496-idZjtG-187" value="" style="curved=1;startArrow=none;endArrow=block;exitX=0.6;exitY=0;entryX=0.68;entryY=1.01;rounded=0;" edge="1" parent="1" source="Yt73LQbdyz496-idZjtG-88" target="Yt73LQbdyz496-idZjtG-87">
          <mxGeometry relative="1" as="geometry">
            <Array as="points">
              <mxPoint x="1185" y="1664" />
              <mxPoint x="1185" y="1639" />
            </Array>
          </mxGeometry>
        </mxCell>
        <mxCell id="Yt73LQbdyz496-idZjtG-188" value="" style="curved=1;startArrow=none;endArrow=block;exitX=0.5;exitY=1;entryX=0.5;entryY=0.01;rounded=0;" edge="1" parent="1" source="Yt73LQbdyz496-idZjtG-66" target="Yt73LQbdyz496-idZjtG-89">
          <mxGeometry relative="1" as="geometry">
            <Array as="points" />
          </mxGeometry>
        </mxCell>
        <mxCell id="Yt73LQbdyz496-idZjtG-189" value="" style="curved=1;startArrow=none;endArrow=block;exitX=0.56;exitY=1.01;entryX=0.46;entryY=0;rounded=0;" edge="1" parent="1" source="Yt73LQbdyz496-idZjtG-89" target="Yt73LQbdyz496-idZjtG-90">
          <mxGeometry relative="1" as="geometry">
            <Array as="points">
              <mxPoint x="854" y="1639" />
              <mxPoint x="854" y="1664" />
            </Array>
          </mxGeometry>
        </mxCell>
        <mxCell id="Yt73LQbdyz496-idZjtG-190" value="" style="curved=1;startArrow=none;endArrow=block;exitX=0.6;exitY=0;entryX=0.68;entryY=1.01;rounded=0;" edge="1" parent="1" source="Yt73LQbdyz496-idZjtG-90" target="Yt73LQbdyz496-idZjtG-89">
          <mxGeometry relative="1" as="geometry">
            <Array as="points">
              <mxPoint x="899" y="1664" />
              <mxPoint x="899" y="1639" />
            </Array>
          </mxGeometry>
        </mxCell>
        <mxCell id="Yt73LQbdyz496-idZjtG-191" value="" style="curved=1;startArrow=none;endArrow=block;exitX=0.35;exitY=1.01;entryX=1;entryY=0.48;rounded=0;" edge="1" parent="1" source="Yt73LQbdyz496-idZjtG-67" target="Yt73LQbdyz496-idZjtG-91">
          <mxGeometry relative="1" as="geometry">
            <Array as="points">
              <mxPoint x="3682" y="1639" />
              <mxPoint x="3682" y="1664" />
            </Array>
          </mxGeometry>
        </mxCell>
        <mxCell id="Yt73LQbdyz496-idZjtG-192" value="" style="curved=1;startArrow=none;endArrow=block;exitX=0.35;exitY=1.01;entryX=1;entryY=0.48;rounded=0;" edge="1" parent="1" source="Yt73LQbdyz496-idZjtG-69" target="Yt73LQbdyz496-idZjtG-91">
          <mxGeometry relative="1" as="geometry">
            <Array as="points">
              <mxPoint x="3411" y="1639" />
              <mxPoint x="3411" y="1664" />
            </Array>
          </mxGeometry>
        </mxCell>
        <mxCell id="Yt73LQbdyz496-idZjtG-193" value="" style="curved=1;startArrow=none;endArrow=block;exitX=0.34;exitY=1.01;entryX=1;entryY=0.47;rounded=0;" edge="1" parent="1" source="Yt73LQbdyz496-idZjtG-71" target="Yt73LQbdyz496-idZjtG-91">
          <mxGeometry relative="1" as="geometry">
            <Array as="points">
              <mxPoint x="3155" y="1639" />
              <mxPoint x="3155" y="1664" />
            </Array>
          </mxGeometry>
        </mxCell>
        <mxCell id="Yt73LQbdyz496-idZjtG-194" value="" style="curved=1;startArrow=none;endArrow=block;exitX=0.34;exitY=1.01;entryX=1;entryY=0.47;rounded=0;" edge="1" parent="1" source="Yt73LQbdyz496-idZjtG-73" target="Yt73LQbdyz496-idZjtG-91">
          <mxGeometry relative="1" as="geometry">
            <Array as="points">
              <mxPoint x="2909" y="1639" />
              <mxPoint x="2909" y="1664" />
            </Array>
          </mxGeometry>
        </mxCell>
        <mxCell id="Yt73LQbdyz496-idZjtG-195" value="" style="curved=1;startArrow=none;endArrow=block;exitX=0.35;exitY=1.01;entryX=1;entryY=0.47;rounded=0;" edge="1" parent="1" source="Yt73LQbdyz496-idZjtG-75" target="Yt73LQbdyz496-idZjtG-91">
          <mxGeometry relative="1" as="geometry">
            <Array as="points">
              <mxPoint x="2662" y="1639" />
              <mxPoint x="2662" y="1664" />
            </Array>
          </mxGeometry>
        </mxCell>
        <mxCell id="Yt73LQbdyz496-idZjtG-196" value="" style="curved=1;startArrow=none;endArrow=block;exitX=0.35;exitY=1.01;entryX=1;entryY=0.46;rounded=0;" edge="1" parent="1" source="Yt73LQbdyz496-idZjtG-77" target="Yt73LQbdyz496-idZjtG-91">
          <mxGeometry relative="1" as="geometry">
            <Array as="points">
              <mxPoint x="2388" y="1639" />
              <mxPoint x="2388" y="1664" />
            </Array>
          </mxGeometry>
        </mxCell>
        <mxCell id="Yt73LQbdyz496-idZjtG-197" value="" style="curved=1;startArrow=none;endArrow=block;exitX=0.35;exitY=1.01;entryX=1;entryY=0.46;rounded=0;" edge="1" parent="1" source="Yt73LQbdyz496-idZjtG-79" target="Yt73LQbdyz496-idZjtG-91">
          <mxGeometry relative="1" as="geometry">
            <Array as="points">
              <mxPoint x="2118" y="1639" />
              <mxPoint x="2118" y="1664" />
            </Array>
          </mxGeometry>
        </mxCell>
        <mxCell id="Yt73LQbdyz496-idZjtG-198" value="" style="curved=1;startArrow=none;endArrow=block;exitX=0.34;exitY=1.01;entryX=1;entryY=0.45;rounded=0;" edge="1" parent="1" source="Yt73LQbdyz496-idZjtG-81" target="Yt73LQbdyz496-idZjtG-91">
          <mxGeometry relative="1" as="geometry">
            <Array as="points">
              <mxPoint x="1874" y="1639" />
              <mxPoint x="1874" y="1664" />
            </Array>
          </mxGeometry>
        </mxCell>
        <mxCell id="Yt73LQbdyz496-idZjtG-199" value="" style="curved=1;startArrow=none;endArrow=block;exitX=0.34;exitY=1.01;entryX=1;entryY=0.44;rounded=0;" edge="1" parent="1" source="Yt73LQbdyz496-idZjtG-83" target="Yt73LQbdyz496-idZjtG-91">
          <mxGeometry relative="1" as="geometry">
            <Array as="points">
              <mxPoint x="1619" y="1639" />
              <mxPoint x="1619" y="1664" />
            </Array>
          </mxGeometry>
        </mxCell>
        <mxCell id="Yt73LQbdyz496-idZjtG-200" value="" style="curved=1;startArrow=none;endArrow=block;exitX=0.35;exitY=1.01;entryX=1;entryY=0.42;rounded=0;" edge="1" parent="1" source="Yt73LQbdyz496-idZjtG-85" target="Yt73LQbdyz496-idZjtG-91">
          <mxGeometry relative="1" as="geometry">
            <Array as="points">
              <mxPoint x="1346" y="1639" />
              <mxPoint x="1346" y="1664" />
            </Array>
          </mxGeometry>
        </mxCell>
        <mxCell id="Yt73LQbdyz496-idZjtG-201" value="" style="curved=1;startArrow=none;endArrow=block;exitX=0.35;exitY=1.01;entryX=1;entryY=0.38;rounded=0;" edge="1" parent="1" source="Yt73LQbdyz496-idZjtG-87" target="Yt73LQbdyz496-idZjtG-91">
          <mxGeometry relative="1" as="geometry">
            <Array as="points">
              <mxPoint x="1061" y="1639" />
              <mxPoint x="1061" y="1664" />
            </Array>
          </mxGeometry>
        </mxCell>
        <mxCell id="Yt73LQbdyz496-idZjtG-202" value="" style="curved=1;startArrow=none;endArrow=block;exitX=0.35;exitY=1.01;entryX=1;entryY=0.28;rounded=0;" edge="1" parent="1" source="Yt73LQbdyz496-idZjtG-89" target="Yt73LQbdyz496-idZjtG-91">
          <mxGeometry relative="1" as="geometry">
            <Array as="points">
              <mxPoint x="779" y="1639" />
              <mxPoint x="779" y="1664" />
            </Array>
          </mxGeometry>
        </mxCell>
        <mxCell id="Yt73LQbdyz496-idZjtG-203" value="" style="curved=1;startArrow=none;endArrow=block;exitX=0.5;exitY=1;entryX=0.45;entryY=0;rounded=0;" edge="1" parent="1" source="Yt73LQbdyz496-idZjtG-91" target="Yt73LQbdyz496-idZjtG-92">
          <mxGeometry relative="1" as="geometry">
            <Array as="points">
              <mxPoint x="443" y="1963" />
            </Array>
          </mxGeometry>
        </mxCell>
        <mxCell id="Yt73LQbdyz496-idZjtG-204" value="" style="curved=1;startArrow=none;endArrow=block;exitX=0.84;exitY=0;entryX=0.75;entryY=1;rounded=0;" edge="1" parent="1" source="Yt73LQbdyz496-idZjtG-92" target="Yt73LQbdyz496-idZjtG-91">
          <mxGeometry relative="1" as="geometry">
            <Array as="points">
              <mxPoint x="519" y="1963" />
              <mxPoint x="519" y="1888" />
            </Array>
          </mxGeometry>
        </mxCell>
        <mxCell id="Yt73LQbdyz496-idZjtG-205" value="Lookup FUID" style="curved=1;dashed=1;dashPattern=2 3;startArrow=none;endArrow=block;exitX=0.5;exitY=1;entryX=0.31;entryY=0;rounded=0;" edge="1" parent="1" source="Yt73LQbdyz496-idZjtG-54" target="Yt73LQbdyz496-idZjtG-91">
          <mxGeometry relative="1" as="geometry">
            <Array as="points">
              <mxPoint x="387" y="1664" />
            </Array>
          </mxGeometry>
        </mxCell>
        <mxCell id="Yt73LQbdyz496-idZjtG-206" value="" style="curved=1;startArrow=none;endArrow=block;exitX=0.25;exitY=1;entryX=1;entryY=0.1;rounded=0;" edge="1" parent="1" source="Yt73LQbdyz496-idZjtG-91" target="Yt73LQbdyz496-idZjtG-93">
          <mxGeometry relative="1" as="geometry">
            <Array as="points">
              <mxPoint x="367" y="1888" />
              <mxPoint x="367" y="1963" />
            </Array>
          </mxGeometry>
        </mxCell>
        <mxCell id="Yt73LQbdyz496-idZjtG-207" value="" style="curved=1;startArrow=none;endArrow=block;exitX=0.5;exitY=1;entryX=0.5;entryY=0;rounded=0;" edge="1" parent="1" source="Yt73LQbdyz496-idZjtG-93" target="Yt73LQbdyz496-idZjtG-94">
          <mxGeometry relative="1" as="geometry">
            <Array as="points" />
          </mxGeometry>
        </mxCell>
      </root>
    </mxGraphModel>
  </diagram>
</mxfile>
